<svg width="43" height="53" viewBox="0 0 43 53" fill="none" xmlns="http://www.w3.org/2000/svg">
<path d="M38.9591 46.1408C36.7737 49.4102 34.4567 52.7323 30.9286 52.7323C27.4004 52.7323 26.2682 50.6494 22.2661 50.6494C18.264 50.6494 17.0002 52.6796 13.6564 52.8114C10.3125 52.9432 7.60057 49.252 5.4942 46.0616C0.99184 39.5492 -2.40468 27.6054 2.17667 19.4846C3.24801 17.5497 4.79947 15.9241 6.68123 14.7649C8.56298 13.6056 10.7114 12.9518 12.9191 12.8667C16.2893 12.8667 19.5015 15.1605 21.5816 15.1605C23.6616 15.1605 27.5321 12.3394 31.6132 12.7612C33.5099 12.8342 35.3636 13.3487 37.0272 14.2641C38.6908 15.1794 40.1185 16.4703 41.1971 18.0344C39.4883 19.0995 38.0743 20.5777 37.0851 22.333C36.096 24.0884 35.5633 26.0646 35.5363 28.0799C35.5652 30.3336 36.2475 32.5302 37.5003 34.4026C38.7531 36.275 40.5222 37.7424 42.5926 38.6264C41.7433 41.2745 40.5197 43.7872 38.9591 46.088M23.9249 3.95492C25.92 1.71288 28.6821 0.301643 31.6658 0C31.9331 3.04193 30.9865 6.06606 29.0329 8.4108C28.1054 9.6156 26.906 10.5831 25.533 11.2339C24.1599 11.8847 22.6524 12.2003 21.134 12.1548C21.0354 10.6712 21.2313 9.18268 21.7103 7.77528C22.1893 6.36787 22.942 5.06943 23.9249 3.95492Z" fill="#2F448B"/>
</svg>
