<svg width="43" height="43" viewBox="0 0 43 43" fill="none" xmlns="http://www.w3.org/2000/svg">
<path d="M4.73251 0H37.8601C39.1152 0 40.319 0.498602 41.2065 1.38612C42.094 2.27364 42.5926 3.47737 42.5926 4.73251V37.8601C42.5926 39.1152 42.094 40.319 41.2065 41.2065C40.319 42.094 39.1152 42.5926 37.8601 42.5926H4.73251C3.47737 42.5926 2.27364 42.094 1.38612 41.2065C0.498602 40.319 0 39.1152 0 37.8601V4.73251C0 3.47737 0.498602 2.27364 1.38612 1.38612C2.27364 0.498602 3.47737 0 4.73251 0ZM35.4938 4.73251H29.5782C27.3817 4.73251 25.2752 5.60507 23.722 7.15822C22.1689 8.71138 21.2963 10.8179 21.2963 13.0144V18.93H16.5638V26.0288H21.2963V42.5926H28.3951V26.0288H35.4938V18.93H28.3951V14.1975C28.3951 13.57 28.6444 12.9681 29.0881 12.5243C29.5319 12.0806 30.1337 11.8313 30.7613 11.8313H35.4938V4.73251Z" fill="#2F448B"/>
</svg>
