<svg width="43" height="43" viewBox="0 0 43 43" fill="none" xmlns="http://www.w3.org/2000/svg">
<path d="M42.3955 18.0216L42.1511 17.0899H21.943V25.5016H34.0298C33.3554 28.0685 31.8221 30.3394 29.675 31.9512C27.5282 33.563 24.8916 34.4226 22.1874 34.3925C18.6586 34.364 15.2682 33.0442 12.6809 30.6924C11.4091 29.4639 10.397 28.0015 9.70255 26.3891C9.00811 24.7768 8.64496 23.046 8.63391 21.2958C8.67495 17.7807 10.095 14.4159 12.5995 11.8992C15.1502 9.53106 18.538 8.22389 22.0516 8.25237C25.0608 8.27508 27.9582 9.37302 30.2001 11.3402L36.1756 5.32424C32.2372 1.88066 27.1395 -0.0153763 21.8615 0.000382338C18.958 -0.0165209 16.0797 0.527205 13.3906 1.60055C10.7016 2.67387 8.25457 4.25577 6.18938 6.25592C2.261 10.2549 0.0462094 15.5775 0.000714104 21.1283C-0.0447541 26.6793 2.08258 32.0359 5.94493 36.0961C8.08481 38.1855 10.6282 39.8361 13.4263 40.9512C16.2244 42.0666 19.2211 42.624 22.2418 42.5912C24.9807 42.6112 27.6955 42.086 30.2215 41.0473C32.7472 40.0086 35.0315 38.4783 36.9361 36.5486C40.6732 32.5214 42.6948 27.2444 42.5856 21.8015C42.615 20.5387 42.5514 19.2756 42.3955 18.0216Z" fill="#2F448B"/>
</svg>
