<svg width="70" height="70" viewBox="0 0 70 70" fill="none" xmlns="http://www.w3.org/2000/svg">
<rect width="70" height="70" fill="#F1F3F5"/>
<path fill-rule="evenodd" clip-rule="evenodd" d="M41.1772 4.11981V65.8857H32.9418L16.4709 49.4148V20.5907L32.9418 4.11981H41.1772ZM12.3532 20.5907V49.4148H6.17659C2.79304 49.4148 0.0552344 46.7108 0.000838542 43.3405L0 43.2382V26.7673C0 23.3838 2.70397 20.6459 6.07425 20.5915L6.17659 20.5907H12.3532ZM65.2586 23.1511L70 27.8879L62.8902 34.9978L70 42.1076L65.2586 46.849L58.1533 39.7392L51.0435 46.849L46.3021 42.1076L53.4119 34.9978L46.3021 27.8879L51.0434 23.1511L58.1533 30.2609L65.2586 23.1511Z" fill="#2F448B"/>
</svg>
