<svg width="35" height="35" viewBox="0 0 35 35" fill="none" xmlns="http://www.w3.org/2000/svg">
<rect width="35" height="35" fill="#F1F3F5"/>
<path fill-rule="evenodd" clip-rule="evenodd" d="M20.5886 2V32.8829H16.4709L8.23545 24.6475V10.2354L16.4709 2H20.5886ZM30.4787 6.52187C33.3961 9.43927 35 13.3182 35 17.4421C35 21.566 33.3961 25.4428 30.4787 28.3602L29.0231 26.9046C31.5514 24.3784 32.9411 21.0162 32.9411 17.4421C32.9411 13.8658 31.5514 10.5058 29.0231 7.97749L30.4787 6.52187ZM6.17659 10.2354V24.6475H3.08829C1.37944 24.6475 0 23.268 0 21.5592V13.3237C0 11.6149 1.37944 10.2354 3.08829 10.2354H6.17659ZM26.1179 10.8932C27.8638 12.6618 28.8232 14.9883 28.8232 17.4404C28.8232 19.8946 27.8638 22.2211 26.1179 23.9897L24.654 22.5464C26.0149 21.1628 26.7644 19.349 26.7644 17.4404C26.7644 15.5339 26.0149 13.7201 24.654 12.3365L26.1179 10.8932Z" fill="#2F448B"/>
</svg>
