<svg width="47" height="43" viewBox="0 0 47 43" fill="none" xmlns="http://www.w3.org/2000/svg">
<path fill-rule="evenodd" clip-rule="evenodd" d="M9.08556 2.12261e-06C10.822 -0.00054506 12.5222 0.500272 13.9845 1.44307C15.4469 2.38587 16.61 3.73111 17.336 5.31927C19.3236 4.6431 21.4078 4.29941 23.5057 4.30188C25.6634 4.30188 27.7399 4.65894 29.6754 5.31927C30.288 3.98167 31.2124 2.81289 32.3702 1.91244C33.5279 1.01199 34.8846 0.406544 36.3247 0.147638C37.7649 -0.111268 39.2458 -0.015963 40.6415 0.425439C42.0372 0.86684 43.3063 1.64127 44.3407 2.68279C45.3752 3.72431 46.1443 5.00208 46.5827 6.40732C47.0211 7.81256 47.1158 9.30365 46.8586 10.7536C46.6015 12.2036 46.0002 13.5696 45.1058 14.7353C44.2115 15.9009 43.0507 16.8317 41.7221 17.4484C42.378 19.3972 42.7326 21.4879 42.7326 23.6603C42.7299 26.4672 42.121 29.2399 40.9481 31.7863C39.7752 34.3327 38.0663 36.5917 35.9399 38.407C33.8135 40.2222 31.3205 41.5502 28.6337 42.2988C25.9469 43.0474 23.1305 43.1988 20.3798 42.7424C17.6291 42.2861 15.0098 41.2329 12.7036 39.6559C10.3974 38.079 8.45932 36.0159 7.0238 33.6097C5.58828 31.2036 4.68962 28.5119 4.39012 25.7213C4.09063 22.9306 4.39745 20.1078 5.28932 17.4484C3.40689 16.5778 1.87678 15.0852 0.952923 13.2183C0.0290697 11.3515 -0.232963 9.22276 0.210315 7.18536C0.653593 5.14795 1.77552 3.32442 3.3899 2.01743C5.00428 0.710441 7.01402 -0.00141864 9.08556 2.12261e-06ZM23.5057 38.7169C28.8145 38.7169 33.1192 35.4582 33.1192 30.1131C33.1192 24.7681 28.8145 19.3584 23.5057 19.3584C18.197 19.3584 13.8923 24.7681 13.8923 30.1131C13.8923 35.4582 18.197 38.7169 23.5057 38.7169ZM17.524 15.4868C17.524 16.1713 17.2539 16.8278 16.7732 17.3119C16.2924 17.7959 15.6404 18.0679 14.9604 18.0679C14.2805 18.0679 13.6285 17.7959 13.1477 17.3119C12.667 16.8278 12.3969 16.1713 12.3969 15.4868C12.3969 14.8022 12.667 14.1457 13.1477 13.6616C13.6285 13.1776 14.2805 12.9056 14.9604 12.9056C15.6404 12.9056 16.2924 13.1776 16.7732 13.6616C17.2539 14.1457 17.524 14.8022 17.524 15.4868ZM32.051 18.0679C32.3877 18.0679 32.721 18.0011 33.0321 17.8714C33.3431 17.7417 33.6257 17.5516 33.8637 17.3119C34.1018 17.0722 34.2906 16.7877 34.4195 16.4745C34.5483 16.1614 34.6146 15.8257 34.6146 15.4868C34.6146 15.1478 34.5483 14.8122 34.4195 14.499C34.2906 14.1859 34.1018 13.9013 33.8637 13.6616C33.6257 13.4219 33.3431 13.2318 33.0321 13.1021C32.721 12.9724 32.3877 12.9056 32.051 12.9056C31.3711 12.9056 30.7191 13.1776 30.2383 13.6616C29.7575 14.1457 29.4874 14.8022 29.4874 15.4868C29.4874 16.1713 29.7575 16.8278 30.2383 17.3119C30.7191 17.7959 31.3711 18.0679 32.051 18.0679ZM27.2443 25.8113C27.2443 26.9986 25.5694 29.0377 23.5057 29.0377C21.442 29.0377 19.7672 26.9986 19.7672 25.8113C19.7672 24.6239 21.442 23.6603 23.5057 23.6603C25.5694 23.6603 27.2443 24.6239 27.2443 25.8113Z" fill="#A7A8CB"/>
</svg>
