<svg width="22" height="22" viewBox="0 0 22 22" fill="none" xmlns="http://www.w3.org/2000/svg">
<path d="M1 7.79284H21M11 1.0004L6.49296 7.79284L11 21.0004L15.507 7.79284L11 1.0004ZM11.7211 20.4117L20.7352 8.33623C20.8807 8.14137 20.9534 8.04394 20.9814 7.93693C21.0062 7.84248 21.0062 7.74319 20.9814 7.64875C20.9534 7.54173 20.8807 7.44431 20.7352 7.24944L16.3408 1.36266C16.2417 1.22983 16.1921 1.16342 16.1292 1.11552C16.0736 1.07309 16.0106 1.04143 15.9434 1.02216C15.8676 1.0004 15.785 1.0004 15.6197 1.0004H6.38028C6.21502 1.0004 6.13239 1.0004 6.05655 1.02216C5.98939 1.04143 5.92637 1.07309 5.87072 1.11552C5.80789 1.16342 5.75831 1.22983 5.65916 1.36266L1.26479 7.24944C1.11932 7.44431 1.04659 7.54173 1.01856 7.64874C0.993814 7.7432 0.993814 7.84248 1.01856 7.93693C1.04659 8.04393 1.11932 8.14137 1.26479 8.33623L10.2789 20.4117C10.5235 20.7395 10.6459 20.9033 10.7958 20.9619C10.9271 21.0132 11.0729 21.0132 11.2042 20.9619C11.3541 20.9033 11.4765 20.7395 11.7211 20.4117Z" stroke="#24A9E2" stroke-width="2" stroke-linecap="round" stroke-linejoin="round"/>
</svg>
