<svg width="20" height="15" viewBox="0 0 20 15" fill="none" xmlns="http://www.w3.org/2000/svg">
<path d="M14.2857 12.5C16.061 12.5 17.5 11.1569 17.5 9.5V7.5001M17.5 7.5001V4.09847C17.5 3.53951 17.5 3.2596 17.3833 3.0459C17.2806 2.85774 17.1163 2.70487 16.9147 2.60899C16.6855 2.5 16.3859 2.5 15.7858 2.5H13.8572C13.2571 2.5 12.9569 2.5 12.7278 2.60899C12.5261 2.70487 12.3624 2.85774 12.2596 3.0459C12.1429 3.25981 12.1429 3.54005 12.1429 4.1001V5.9001C12.1429 6.4602 12.1429 6.7398 12.2596 6.9537C12.3624 7.1419 12.5261 7.2952 12.7278 7.3911C12.9567 7.5 13.2566 7.5 13.8555 7.5L17.5 7.5001ZM4.64286 12.5C6.41805 12.5 7.85714 11.1569 7.85714 9.5V7.5001M7.85714 7.5001V4.09846C7.85714 3.5395 7.85714 3.2596 7.74048 3.0459C7.63776 2.85774 7.47342 2.70487 7.27182 2.60899C7.04263 2.5 6.74302 2.5 6.14296 2.5H4.21439C3.61434 2.5 3.31408 2.5 3.08489 2.60899C2.88329 2.70487 2.7195 2.85774 2.61678 3.0459C2.5 3.25981 2.5 3.54005 2.5 4.1001V5.9001C2.5 6.4602 2.5 6.7398 2.61678 6.9537C2.7195 7.1419 2.88329 7.2952 3.08489 7.3911C3.31386 7.5 3.61375 7.5 4.21263 7.5L7.85714 7.5001Z" stroke="#2F448B" stroke-width="5" stroke-linecap="round" stroke-linejoin="round"/>
</svg>
