<svg width="20" height="15" viewBox="0 0 20 15" fill="none" xmlns="http://www.w3.org/2000/svg">
<path d="M12.1429 7.5V10.9C12.1429 11.4601 12.1429 11.7399 12.2596 11.9538C12.3624 12.142 12.5261 12.2952 12.7278 12.3911C12.9567 12.5 13.2566 12.5 13.8555 12.5H15.7873C16.3863 12.5 16.6857 12.5 16.9147 12.3911C17.1163 12.2952 17.2806 12.1419 17.3833 11.9537C17.5 11.74 17.5 11.4605 17.5 10.9015V9.0985C17.5 8.5395 17.5 8.2596 17.3833 8.0459C17.2806 7.8577 17.1164 7.7049 16.9148 7.609C16.6856 7.5 16.3858 7.5 15.7857 7.5H12.1429ZM12.1429 7.5V5.5C12.1429 3.84315 13.5819 2.5 15.3571 2.5M2.5 7.5V10.9C2.5 11.4601 2.5 11.7399 2.61678 11.9538C2.7195 12.142 2.88329 12.2952 3.08489 12.3911C3.31386 12.5 3.61375 12.5 4.21263 12.5H6.14451C6.74339 12.5 7.04285 12.5 7.27182 12.3911C7.47342 12.2952 7.63776 12.1419 7.74048 11.9537C7.85714 11.74 7.85714 11.4605 7.85714 10.9015V9.0985C7.85714 8.5395 7.85714 8.2596 7.74048 8.0459C7.63776 7.8577 7.47353 7.7049 7.27192 7.609C7.04273 7.5 6.74291 7.5 6.14286 7.5H2.5ZM2.5 7.5V5.5C2.5 3.84315 3.93909 2.5 5.71429 2.5" stroke="#2F448B" stroke-width="5" stroke-linecap="round" stroke-linejoin="round"/>
</svg>
