<svg width="34" height="45" viewBox="0 0 34 45" fill="none" xmlns="http://www.w3.org/2000/svg">
<path opacity="0.5" fill-rule="evenodd" clip-rule="evenodd" d="M2.83333 16.875C4.39814 16.875 5.66667 15.6065 5.66667 14.0417V11.25C5.66667 5.03679 10.7408 0 17 0C23.2591 0 28.3333 5.03679 28.3333 11.25V14.0417C28.3333 15.6065 29.6019 16.875 31.1667 16.875C32.7315 16.875 34 18.1435 34 19.7083V30.9375C34 38.704 27.704 45 19.9375 45H14.0625C6.296 45 0 38.704 0 30.9375V19.7083C0 18.1435 1.26853 16.875 2.83333 16.875ZM11.3333 11.25C11.3333 8.1434 13.8704 5.625 17 5.625C20.1296 5.625 22.6667 8.1434 22.6667 11.25C22.6667 14.3566 20.1066 16.875 17 16.875C13.8934 16.875 11.3333 14.3566 11.3333 11.25ZM17 36.5625C15.4352 36.5625 14.1667 35.294 14.1667 33.7292V28.1458C14.1667 26.581 15.4352 25.3125 17 25.3125C18.5648 25.3125 19.8333 26.581 19.8333 28.1458V33.7292C19.8333 35.294 18.5648 36.5625 17 36.5625Z" fill="#2F448B"/>
</svg>
