<svg width="21" height="20" viewBox="0 0 21 20" fill="none" xmlns="http://www.w3.org/2000/svg">
<path d="M7.64983 1.72744C8.39821 -0.575833 11.6567 -0.57583 12.4051 1.72745L13.0584 3.73809C13.3931 4.76815 14.353 5.46555 15.436 5.46555H17.5502C19.972 5.46555 20.9789 8.56459 19.0196 9.98809L17.3093 11.2307C16.433 11.8673 16.0664 12.9958 16.4011 14.0258L17.0544 16.0365C17.8028 18.3397 15.1666 20.2551 13.2073 18.8315L11.4969 17.5889C10.6207 16.9523 9.43422 16.9523 8.558 17.5889L6.84764 18.8316C4.88836 20.2551 2.25216 18.3397 3.00054 16.0365L3.65384 14.0258C3.98853 12.9958 3.62188 11.8673 2.74566 11.2307L1.0353 9.98809C-0.92398 8.56459 0.082962 5.46555 2.50477 5.46555H4.61889C5.70195 5.46555 6.66184 4.76815 6.99653 3.73809L7.64983 1.72744Z" fill="#FFBA2F"/>
</svg>
