<svg width="42" height="41" viewBox="0 0 42 41" fill="none" xmlns="http://www.w3.org/2000/svg">
<path d="M16.2146 3.51822C17.4 -1.17274 24.0649 -1.17274 25.2502 3.51821C25.9617 6.33383 29.0474 7.81981 31.6923 6.62056C36.0989 4.62254 40.2544 9.83339 37.3259 13.6849C35.5682 15.9967 36.3303 19.3356 38.917 20.6558C43.2266 22.8553 41.7435 29.3531 36.9064 29.4649C34.003 29.532 31.8677 32.2096 32.4483 35.0551C33.4157 39.7958 27.4108 42.6876 24.3075 38.9755C22.4448 36.7474 19.02 36.7474 17.1573 38.9755C14.054 42.6876 8.04916 39.7958 9.01652 35.0551C9.59715 32.2096 7.4618 29.532 4.55846 29.4649C-0.278646 29.3531 -1.76173 22.8553 2.54784 20.6558C5.13455 19.3356 5.89664 15.9967 4.13891 13.6849C1.21043 9.83339 5.36594 4.62254 9.77253 6.62056C12.4175 7.81981 15.5031 6.33383 16.2146 3.51822Z" fill="#A7A8CB"/>
</svg>
